<svg width="400" height="400" viewBox="0 0 400 400" fill="none" xmlns="http://www.w3.org/2000/svg">
<g clip-path="url(#clip0_1_20)">
<path fill-rule="evenodd" clip-rule="evenodd" d="M320.495 87.631C310.838 81.0502 300.997 74.3432 291.436 67.1266C282.854 60.7899 274.493 54.0696 266.227 47.4256C240.362 26.6366 215.427 6.59455 187.529 1.38991C150.714 -5.4781 108.394 13.8177 84.9971 43.5791C68.3531 64.6736 60.8411 90.7512 53.0949 117.642C49.7922 129.108 46.4469 140.721 42.333 152.159C38.0925 163.949 33.0682 175.521 27.9845 187.23C16.5688 213.524 4.85398 240.506 1.04511 272.186C-4.45994 317.645 6.55016 372.589 41.3008 391.558C75.7074 410.854 134.199 394.175 174.798 370.627C194.591 359.049 210.059 345.811 224.923 333.09C240.29 319.937 255.012 307.338 273.201 297.695C286.626 290.51 301.977 285.013 317.177 279.571C342.101 270.647 366.621 261.868 381.582 246.022C405.666 220.512 404.634 176.688 385.022 144.964C370.753 121.883 346.284 105.207 320.495 87.631ZM291.757 156.546C279.498 113.504 239.245 77.4776 189.637 78.0057C141.422 78.519 110.349 117.801 94.7273 158.644C78.0572 202.228 68.6852 256.975 111.32 282.767C149.915 306.115 194.105 275.047 231.525 248.74C233.415 247.411 235.288 246.094 237.143 244.797C269.866 221.906 302.019 192.574 291.757 156.546Z" fill="url(#paint0_linear_1_20)"/>
</g>
<defs>
<linearGradient id="paint0_linear_1_20" x1="199.701" y1="0" x2="199.701" y2="400" gradientUnits="userSpaceOnUse">
<stop stop-color="#ffffff"/>
<stop offset="1" stop-color="#ffffff"/>
</linearGradient>
<clipPath id="clip0_1_20">
<rect width="400" height="400" fill="white"/>
</clipPath>
</defs>
</svg>
